# xmcd
#
# Track frame offsets: 
#        150
#        19807
#        37647
#        64214
#        88452
#        104838
#        122935
#        141232
#        159828
#
# Disc length: 2468 seconds
#
# Revision: 1
# Processed by: cddbd v1.5.2PL0 Copyright (c) Steve Scherf et al.
# Submitted via: ExactAudioCopyFreeDBPlugin 1.0
#
DISCID=7b09a209
DTITLE=Booker T. and Priscilla Jones - Chronicles
DYEAR=1973
DGENRE=Soul
TTITLE0=Fly
TTITLE1=When Two People Are in Love
TTITLE2=Rings Around the World
TTITLE3=Wild Fox
TTITLE4=Mendocino
TTITLE5=The Crippled Crow
TTITLE6=Cherokee River
TTITLE7=Time
TTITLE8=Wounded Knee
EXTD=
EXTT0=
EXTT1=
EXTT2=
EXTT3=
EXTT4=
EXTT5=
EXTT6=
EXTT7=
EXTT8=
PLAYORDER=
